<?xml version="1.0" encoding="UTF-8"?><svg id="Layer_1" xmlns="http://www.w3.org/2000/svg" width="4.2in" height="4.2in" viewBox="0 0 304.8 302.8"><path d="M156.8,162.1c106.2,171.7-9,202.6-3.6,1-5.5,201.6-119.1,165.4-3.5-1.1-115.6,166.5-191.6,74.5-2.4-2.8-189.3,77.4-203.5-41.1-.4-3.7-203-37.4-151-144.8,1.6-3.3-152.6-141.4-50.7-203.6,3.1-1.9-53.9-201.6,65.4-198.9,3.7,0,61.7-198.9,160.5-132.1,3.1,2.1,157.5-134.2,204.5-24.5,1.5,3.4,203-27.9,183.3,89.7-.6,3.6,183.9,86.1,103.7,174.4-2.5,2.7Z" fill="#231f20"/></svg>