<?xml version="1.0" encoding="UTF-8"?><svg id="Layer_1" xmlns="http://www.w3.org/2000/svg" width="6in" height=".7in" viewBox="0 0 432 49.8"><g><path d="M25.3,48c6.7,0,12.3-5.1,12.9-11.7h.9l-1.1,12.6H0v-.9c1.5,0,2.9-.6,3.9-1.6,1-1,1.6-2.4,1.6-3.9V7.3C5.5,4.2,3,1.8,0,1.8V.9H37.1l1.1,12.6h-.9c-.6-6.7-6.2-11.7-12.9-11.7H10.5V20.4c0,2.2,1.8,4,4,4h5c4.4,0,8-3.6,8-8h.9v16.9h-.9c0-4.4-3.6-8-8-8h-5c-2.2,0-4,1.8-4,4v18.7h14.8Z" fill="#231f20"/><path d="M103.1,48.9h-16v-.9c1.5,0,2.9-.6,3.9-1.6,1-1,1.6-2.4,1.6-3.9V7c0-1-1.4-1.4-1.9-.4l-20.1,42c0,.1-.1,.2-.2,.3-.1,0-.2,.1-.3,.1-.3,0-.5-.2-.6-.4L52.5,6.6c-.4-1-2-.7-2,.4V42.5c0,1.5,.6,2.9,1.6,3.9,1,1,2.4,1.6,3.9,1.6v.9h-11.9v-.9c3,0,5.5-2.5,5.5-5.5V7.3c0-1.5-.6-2.9-1.6-3.9-1-1-2.4-1.6-3.9-1.6V.9h12.1l14.3,35.4c.9,2.2,4,2.3,5,.2L92.6,.9h0s10.5,0,10.5,0v.9c-1.5,0-2.9,.6-3.9,1.6-1,1-1.6,2.4-1.6,3.9V42.5c0,3,2.5,5.5,5.5,5.5v.9Z" fill="#231f20"/><path d="M124.2,48h0v.9h-16v-.9c1.5,0,2.9-.6,3.9-1.6,1-1,1.6-2.4,1.6-3.9V7.3c0-3-2.5-5.5-5.5-5.5V.9h16v.9h0c-3,0-5.5,2.5-5.5,5.5V42.5c0,3,2.5,5.5,5.5,5.5Z" fill="#231f20"/><path d="M168.4,48.9h-39.1v-.9c3,0,5.5-2.5,5.5-5.5V7.3c0-3-2.5-5.5-5.5-5.5V.9h16v.9h0c-3,0-5.5,2.5-5.5,5.5V44c0,2.2,1.8,4,4,4h9c6.2,0,12.1-3.1,15.6-8.2v9.1Z" fill="#231f20"/><path d="M212.6,1.8c-3.8,0-7.3,1.9-9.4,5.1l-11.4,17.7c-.5,.7-.7,1.6-.7,2.4v15.5c0,3,2.5,5.5,5.5,5.5v.9h-16v-.9c3,0,5.5-2.5,5.5-5.5V26.3c0-.3,0-.7-.3-.9l-12.5-19.3c-1.7-2.7-4.7-4.3-7.9-4.3V.9h16.6v.9c-2.2,0-3.5,2.4-2.3,4.2l9.8,15.2c.2,.2,.4,.4,.6,.6,.3,.1,.5,.2,.8,.2,.9,0,1.7-.5,2.2-1.2l9.5-14.8c1.1-1.8-.1-4.1-2.3-4.1V.9h12.1v.9Z" fill="#231f20"/></g><g><path d="M264.4,49.8c0-2.6-2.5-4.2-4.6-3.1l-1.2,.6c-3,1.7-6.7,2.8-11,2.4-3.8-.4-7.8-1.4-11-3.6-3.2-2.2-6.4-4.8-8.7-8.4-2.2-3.6-3.5-8.4-3.5-12.8,0-4.4,1.3-9.2,3.5-12.8,2.2-3.6,5.5-6.2,8.7-8.4,3.2-2.2,7.2-3.2,11-3.6,8.2-.8,14.7,4.3,14.7,4.3v.3s2.2,12.1,2.2,12.1l-.8,.2v-.4c-3.5-11.6-8.4-14.9-12.6-15.7-2.1-.4-4.2-.2-6.2,.4-1,.3-1.9,.6-2.9,1.1-1.6,.7-3.1,1.6-4.5,2.7-2.9,2.3-4.7,5.7-5.9,9.1-1.2,3.5-1.7,7.1-1.7,10.7s.5,7.2,1.7,10.7c1.2,3.5,3,6.8,5.9,9.1,2.8,2.2,6,3.6,9.4,4.2,.6,0,1.2,.1,1.7,.1s1.3,0,2-.2c3-.5,7.5-2.3,9.3-8.4,.4-1.5,.6-3.1,.6-4.6v-7.3l-14.4-3.8h19v25h-.8Z" fill="#231f20"/><path d="M288.7,25.3l21.6,22.1c.4,.4,1,.7,1.6,.7v.9h-11.2v-.9c1.5,0,2.2-2,1.1-3.1l-17-17.6c-1.4-1.3-3.2-2.1-5-2.1v17.2c0,3,2.3,5.5,5.1,5.5h0v.9h-14.9v-.9c2.8,0,5.1-2.5,5.1-5.5V7.3c0-1.5-.6-2.9-1.5-3.9-.9-1-2.2-1.6-3.6-1.6V.9h22.8c5.8,.2,10.8,4.9,11.2,11.1,.2,2.3-.5,4.5-1.6,6.5-2.4,4.3-6.9,6.8-11.6,6.8h-2.2Zm-9-.8h8.5c3.8,0,7.5-1.8,9.4-5.3,1.1-1.8,1.7-4,1.7-6.3s0-.8,0-1.2c-.5-5.7-5.4-9.9-10.8-9.9h-8.8V24.5h0Z" fill="#231f20"/><path d="M353.4,48v.9h-15.8v-.9c3,0,5-3.2,4-6.2l-4.9-14.1c-.6-1.9-2.9-2.4-4.2-1l-14.9,16c-.6,.6-.8,1.4-.8,2.1s.4,1.8,1.2,2.4c.3,.2,.6,.4,1,.5s.7,.2,1.1,.2v.9h-11v-.9c2.3,0,4.4-1.6,5.2-3.9l12.7-37c.2-.5,.2-.9,.2-1.4,0-2.1-1.6-3.9-3.7-3.9V.9h9.8l15,43.4c.4,1.1,1.1,2,1.9,2.7,.9,.6,1.9,1,3,1Zm-19.2-27.6l-5.5-15.8-11.7,34.2c-.4,1.2,1,2.2,1.9,1.3l14.4-15.5c1-1.1,1.4-2.8,.9-4.3Z" fill="#231f20"/><path d="M392.7,32.6l-2.2,12.4s-6.7,5.5-15,4.7c-3.8-.4-7.8-1.4-11-3.6-3.2-2.2-6.5-4.8-8.7-8.4-2.2-3.6-3.5-8.4-3.5-12.8,0-4.4,1.3-9.2,3.5-12.8,2.2-3.6,5.5-6.2,8.7-8.4,3.2-2.2,7.2-3.2,11-3.6,8.2-.8,13.1,3.6,13.1,3.6v.3s2.2,12.2,2.2,12.2l-.8,.2c-4.6-15.8-11.9-15.9-14.7-15.6-.3,0-.4,0-.4,0-3.4,.6-6.7,2.1-9.4,4.2-2.9,2.3-4.7,5.7-5.9,9.1-1.2,3.5-1.7,7.1-1.7,10.7s.5,7.2,1.7,10.7c1.2,3.5,3,6.8,5.9,9.1,2.8,2.2,6,3.6,9.4,4.2,0,0,.1,0,.4,0,3.4,.6,12-.9,16.6-16.6l.8,.2Z" fill="#231f20"/><path d="M419.2,48c6.2,0,11.4-5.1,12-11.7h.8l-1,12.6h-35.4v-.9c1.4,0,2.7-.6,3.6-1.6,.9-1,1.5-2.4,1.5-3.9V7.3c0-3-2.3-5.5-5.1-5.5V.9h34.6l1,12.6h-.8c-.6-6.7-5.8-11.7-12-11.7h-13V20.4c0,2.2,1.7,4,3.8,4h4.7c4.1,0,7.5-3.6,7.5-8h.8v16.9h-.8c0-4.4-3.3-8-7.5-8h-4.7c-2.1,0-3.8,1.8-3.8,4v18.7h13.8Z" fill="#231f20"/></g></svg>