<?xml version="1.0" encoding="UTF-8"?><svg id="Layer_1" xmlns="http://www.w3.org/2000/svg" width="3.8in" height="5.2in" viewBox="0 0 270 375.2"><path d="M0,92.6c0-12,1.6-23.6,4.8-34.7,3.2-11.1,8.1-21,14.8-29.6,6.7-8.6,15.3-15.4,26-20.6C56.1,2.6,68.9,0,83.8,0s18.2,1.3,26,3.9c7.7,2.6,14.3,6,19.8,10.2,5.5,4.2,9.7,9,12.7,14.5,3,5.5,4.5,11.2,4.5,17.2s-1.2,10.8-3.6,14.8c-2.4,4-5.6,7.5-9.5,10.5-4,3-8.5,5.7-13.5,8.1-5.1,2.4-10.3,4.9-15.8,7.5-6.2,2.9-12.3,5.9-18.5,9-6.2,3.1-12,6-17.5,8.9-5.5,2.8-10.5,5.4-14.9,7.8-4.5,2.4-8.1,4.4-10.8,5.9,6.5,8.6,14.5,15.3,24,20.2,9.5,4.9,20.4,7.3,32.5,7.3s19-1.9,27.8-5.8c8.7-3.9,15.6-9,20.6-15.6h1.3l-14.7,46c-6.8,3.4-14.4,5.9-22.5,7.3-8.1,1.5-16.3,2.2-24.5,2.2-12,0-23.3-2.2-33.8-6.7-10.5-4.5-19.8-10.6-27.6-18.4-7.9-7.8-14.1-17.1-18.8-27.8C2.3,116.4,0,104.9,0,92.6Zm40.6,22.9c3.9-2.2,9.7-5.8,17.3-10.7,7.6-4.9,15.3-10.5,22.9-17,7.6-6.4,14.3-13.3,20-20.6,5.8-7.3,8.6-14.4,8.6-21.5s-.6-7.3-1.8-11.7c-1.2-4.4-3.5-8.5-6.8-12.5-3.3-3.9-7.9-7.3-13.7-10-5.8-2.7-13.3-4.1-22.4-4.1s-13.4,1.5-18.5,4.4c-5.1,2.9-9.4,6.8-12.7,11.6-3.3,4.8-5.8,10.2-7.3,16.3-1.5,6.1-2.3,12.2-2.3,18.4,0,11,1.4,21.3,4.2,31.1,2.8,9.8,7,18.5,12.5,26.2Z" fill="#221f20"/><path d="M109.5,333c0-5.8,1.7-10.9,5.3-15,3.5-4.2,7.8-7.6,13-10.3,5.1-2.7,10.7-4.5,16.6-5.5,5.9-1,11.2-1.4,15.8-1-3.4-2.9-6.1-6.2-8-9.9-1.9-3.7-2.8-8-2.8-13s2-10.4,6-13.2c4-2.8,8.4-4.8,13.2-6-8.6-1.9-16.2-5-23-9.4-6.8-4.4-12.5-9.7-17.1-15.9-4.6-6.3-8.2-13.3-10.7-21.1-2.5-7.8-3.7-16-3.7-24.6s1.6-19.3,4.9-28c3.3-8.7,7.9-16.4,14-22.9,6.1-6.5,13.5-11.7,22.4-15.6,8.8-3.9,18.9-5.9,30.2-6h72.8v3.9h-46c15.1,5,26.6,13.7,34.7,26.1,8.1,12.4,12.1,26.6,12.1,42.6s-1.6,19.4-4.9,28.3c-3.3,8.9-8,16.6-14.1,23.1-6.2,6.5-13.8,11.7-22.8,15.6-9,3.9-19.2,5.8-30.5,5.8s-2.7,0-4-.1c-1.3,0-2.6-.1-4-.1s-2.8,0-4.9,.1c-2.1,0-4,.3-5.9,.8-1.9,.4-3.5,1-4.9,1.8-1.4,.8-2.1,1.9-2.1,3.5,0,3.8,2.7,6.6,8.1,8.4,5.4,1.8,12.1,3.4,20.2,4.8,8.1,1.4,16.8,2.9,26.1,4.5,9.3,1.6,18,4.2,26.1,7.7,8.1,3.5,14.8,8.3,20.2,14.3,5.4,6,8.1,14.1,8.1,24.2s-1.9,15.4-5.7,21.1c-3.8,5.7-9,10.2-15.6,13.8-6.6,3.5-14.4,6-23.4,7.6-9,1.5-18.7,2.3-29.2,2.3s-19-.5-29.2-1.5-19.5-3.1-28-6.2c-8.5-3.1-15.5-7.4-21.1-12.9-5.6-5.5-8.3-12.7-8.3-21.6Zm117.8,30.6c9.3,0,16.6-1.2,22-3.6,5.4-2.4,8.1-6.5,8.1-12.3s-2.3-9.2-6.8-12.2c-4.5-3-10.3-5.6-17.3-7.7-7-2.1-14.7-4.1-23-5.9-8.3-1.8-16.3-4.2-24-7.1-2.4-.9-4.7-1.8-6.9-2.8-2.2-1-4.5-2.1-6.7-3.1-2.9-1.4-5.7-2.3-8.5-2.8-2.8-.5-5.3-.8-7.7-.8-5.5,0-10,1.2-13.5,3.7-3.5,2.5-5.3,6.1-5.3,10.9s3.2,11.7,9.6,17c6.4,5.3,14.3,10,23.5,13.9,9.2,3.9,19,7.1,29.3,9.4,10.3,2.3,19.4,3.5,27.3,3.5Zm-76.4-163.5c2.9,7.9,6.3,15.2,10.3,21.9,3.9,6.7,8.1,12.4,12.6,17.2,4.4,4.8,9.2,8.6,14.1,11.3,5,2.7,9.9,4.1,14.9,4.1s5.7-.5,8.5-1.5c5.5-1.9,9.8-5.3,12.8-10.2,3.1-4.9,5-10.8,5.8-17.7,.8-6.9,.5-14.7-.9-23.3-1.4-8.6-3.8-17.3-7.2-26.2-2.9-7.9-6.3-15.1-10.2-21.7-3.9-6.6-8-12.3-12.5-17.1-4.5-4.8-9.1-8.6-14-11.3-4.9-2.7-9.8-4.1-14.8-4.1s-5.6,.5-8.5,1.5c-5.7,1.9-10,5.3-13.1,10.3-3.1,5-5,10.9-5.8,17.9-.8,6.9-.5,14.6,.9,23,1.4,8.4,3.7,17.1,6.9,26Z" fill="#221f20"/><path d="M197.7,55.9c7.1,41.1-16.8,37.9-.7,0-16.1,38-34.5,22.3-.6-.5-33.9,22.8-40.9-.3-.2-.7-40.7,.4-34.1-22.8,.2-.7-34.3-22.1-16.3-38,.6-.5-16.8-37.5,7-41.2,.7-.1,6.3-41.1,28.4-31.3,.7,.3,27.7-31.6,40.9-11.4,.4,.6,40.5-12,40.7,12.1,0,.7,40.7,11.4,27.9,31.8-.4,.6,28.3,31.2,6.4,41.4-.7,.3Z" fill="#221f20"/></svg>