<?xml version="1.0" encoding="UTF-8"?><svg id="Layer_1" xmlns="http://www.w3.org/2000/svg" width="6in" height="1.3in" viewBox="0 0 432 92.4"><path d="M0,47.2c0-3.2,.4-6.4,1.3-9.4,.9-3,2.2-5.7,4-8,1.8-2.3,4.1-4.2,7-5.6,2.9-1.4,6.3-2.1,10.3-2.1s4.9,.3,7,1,3.9,1.6,5.3,2.7c1.5,1.1,2.6,2.4,3.4,3.9,.8,1.5,1.2,3,1.2,4.7s-.3,2.9-1,4c-.6,1.1-1.5,2-2.6,2.8-1.1,.8-2.3,1.5-3.6,2.2-1.4,.6-2.8,1.3-4.3,2-1.7,.8-3.3,1.6-5,2.4s-3.2,1.6-4.7,2.4c-1.5,.8-2.8,1.5-4,2.1-1.2,.6-2.2,1.2-2.9,1.6,1.8,2.3,3.9,4.1,6.5,5.5s5.5,2,8.8,2,5.1-.5,7.5-1.6c2.4-1,4.2-2.4,5.6-4.2h.4l-4,12.4c-1.8,.9-3.9,1.6-6.1,2s-4.4,.6-6.6,.6c-3.2,0-6.3-.6-9.1-1.8s-5.3-2.9-7.5-5c-2.1-2.1-3.8-4.6-5.1-7.5-1.2-2.9-1.9-6-1.9-9.3Zm11,6.2c1.1-.6,2.6-1.6,4.7-2.9,2.1-1.3,4.1-2.8,6.2-4.6,2.1-1.7,3.9-3.6,5.4-5.6,1.6-2,2.3-3.9,2.3-5.8s-.2-2-.5-3.2c-.3-1.2-.9-2.3-1.8-3.4s-2.1-2-3.7-2.7c-1.6-.7-3.6-1.1-6-1.1s-3.6,.4-5,1.2c-1.4,.8-2.5,1.8-3.4,3.1-.9,1.3-1.6,2.8-2,4.4-.4,1.6-.6,3.3-.6,5,0,3,.4,5.8,1.1,8.4,.8,2.6,1.9,5,3.4,7.1Z" fill="#221f20"/><path d="M56.6,22.2v14.9c.2-1.5,.8-3.1,1.6-4.8,.9-1.7,2-3.3,3.4-4.8,1.4-1.5,3.2-2.7,5.2-3.8,2-1,4.3-1.5,6.8-1.5s2.1,.1,3.4,.3c1.4,.2,2.7,.7,3.9,1.6,1.2,.9,2.3,2.2,3.2,3.9,.9,1.8,1.4,4.2,1.4,7.4v1.7c.2-1.5,.8-3.1,1.6-4.8,.9-1.7,2-3.3,3.4-4.8,1.4-1.5,3.2-2.7,5.2-3.8,2-1,4.3-1.5,6.8-1.5s2.1,.1,3.4,.3c1.4,.2,2.7,.7,3.9,1.6,1.2,.9,2.3,2.2,3.2,3.9,.9,1.8,1.4,4.2,1.4,7.4v34.7h-10.1V31.9c0-2.2-.5-3.9-1.6-5-1-1.1-2.4-1.6-4.1-1.6s-3.6,.5-5.2,1.5c-1.6,1-3,2.4-4.2,4.1s-2.1,3.7-2.8,5.9c-.7,2.2-1,4.6-1,7v26.3h-10.1V31.9c0-2.2-.5-3.9-1.6-5-1-1.1-2.4-1.6-4.1-1.6s-3.6,.5-5.2,1.5c-1.6,1-3,2.4-4.2,4.1s-2.1,3.7-2.8,5.9c-.7,2.2-1,4.6-1,7v26.3h-10.1V32.1c0-1.9-.4-3.1-1.2-3.7-.8-.6-2-.8-3.7-.8v-.3c1.3-.1,2.6-.4,4-.7,1.4-.3,2.7-.8,4.1-1.2,1.3-.5,2.6-1,3.8-1.5,1.2-.5,2.2-1.1,3.1-1.6Z" fill="#221f20"/><path d="M118.7,27.6v-.3c1.3-.1,2.6-.4,4-.7,1.4-.3,2.7-.8,4.1-1.2,1.3-.5,2.6-1,3.8-1.5,1.2-.5,2.2-1.1,3.1-1.6v47.9h-10.1V32.1c0-1.9-.4-3.1-1.2-3.7-.8-.6-2-.8-3.7-.8Z" fill="#221f20"/><path d="M138.1,5.3v-.3c1.3-.1,2.6-.4,4-.7s2.7-.8,4.1-1.2c1.3-.5,2.6-1,3.8-1.5,1.2-.5,2.2-1.1,3.1-1.6V70.1h-10.1V9.6c0-1.9-.4-3.1-1.2-3.5-.8-.5-2-.7-3.8-.7Z" fill="#221f20"/><path d="M154.5,80.5c1.1,.6,2.1,1,3.1,1.5,.9,.4,1.8,.8,2.7,1,.9,.3,1.8,.5,2.8,.6s2.1,.2,3.3,.2c4.3,0,8-.7,11.2-2s5.8-3.2,8-5.7c2.1-2.5,3.8-5.5,4.9-9,1.2-3.5,1.8-7.6,2-12.1-.8,2.1-1.8,4.2-2.7,6.1-1,1.9-2.1,3.6-3.2,5-1.1,1.4-2.3,2.6-3.6,3.4s-2.6,1.3-4,1.3c-2.1,0-3.8-.3-5.1-1-1.3-.7-2.4-1.6-3.3-2.8-.9-1.2-1.6-2.6-2.1-4.2s-1.1-3.2-1.6-5c-.9-3.1-1.7-6-2.4-8.7-.7-2.7-1.3-5.4-1.9-8.1-.6-2.7-1.2-5.5-1.8-8.4-.6-2.9-1.4-6.1-2.2-9.6h10.1c.9,3.9,1.7,7.4,2.4,10.5s1.4,6.2,2.1,9.2c.7,3,1.4,6,2.2,9.1,.8,3.1,1.7,6.5,2.8,10.2,.6,2.2,1.3,3.7,2,4.7,.7,.9,1.4,1.4,2,1.4s1.8-.7,2.9-2.2c1.1-1.5,2.2-3.4,3.3-5.8s1.9-5.1,2.7-8.2c.7-3.1,1.1-6.2,1.1-9.3s-.1-3.8-.4-5.7c-.3-1.9-.8-3.7-1.4-5.3-.7-1.7-1.6-3.3-2.6-4.7-1.1-1.5-2.5-2.7-4.1-3.9l8.4-4.9c2,1,3.5,2.8,4.7,5.2,1.1,2.5,1.7,5.3,1.7,8.5,0,4.6-.3,9.3-1,14.1s-1.6,9.4-3,13.9c-1.3,4.5-3,8.7-5,12.7s-4.3,7.4-6.9,10.4c-2.6,3-5.6,5.3-8.9,7s-7,2.6-10.9,2.6-3-.2-4.3-.5-2.6-.9-3.8-1.6v-9.8Z" fill="#221f20"/><path d="M220.7,81c0-1.6,.5-2.9,1.4-4.1,.9-1.1,2.1-2.1,3.5-2.8,1.4-.7,2.9-1.2,4.5-1.5,1.6-.3,3-.4,4.3-.3-.9-.8-1.6-1.7-2.2-2.7s-.8-2.2-.8-3.5,.5-2.8,1.6-3.6c1.1-.8,2.3-1.3,3.6-1.6-2.3-.5-4.4-1.4-6.2-2.5s-3.4-2.6-4.6-4.3c-1.2-1.7-2.2-3.6-2.9-5.7-.7-2.1-1-4.3-1-6.6s.4-5.2,1.3-7.6c.9-2.4,2.1-4.4,3.8-6.2s3.7-3.2,6-4.2,5.1-1.6,8.2-1.6h19.7v1h-12.4c4.1,1.3,7.2,3.7,9.4,7.1,2.2,3.4,3.3,7.2,3.3,11.5s-.4,5.2-1.3,7.6c-.9,2.4-2.2,4.5-3.8,6.3-1.7,1.8-3.7,3.2-6.1,4.2s-5.2,1.6-8.2,1.6-.7,0-1.1,0-.7,0-1.1,0-.8,0-1.3,0-1.1,0-1.6,.2c-.5,.1-.9,.3-1.3,.5-.4,.2-.6,.5-.6,.9,0,1,.7,1.8,2.2,2.3,1.5,.5,3.3,.9,5.5,1.3,2.2,.4,4.5,.8,7,1.2s4.9,1.1,7.1,2.1c2.2,.9,4,2.2,5.5,3.9,1.5,1.6,2.2,3.8,2.2,6.5s-.5,4.2-1.5,5.7c-1,1.5-2.4,2.8-4.2,3.7-1.8,.9-3.9,1.6-6.3,2-2.4,.4-5.1,.6-7.9,.6s-5.1-.1-7.9-.4-5.3-.8-7.6-1.7-4.2-2-5.7-3.5-2.3-3.4-2.3-5.8Zm31.8,8.3c2.5,0,4.5-.3,5.9-1,1.5-.6,2.2-1.8,2.2-3.3s-.6-2.5-1.8-3.3-2.8-1.5-4.7-2.1c-1.9-.6-4-1.1-6.2-1.6s-4.4-1.1-6.5-1.9c-.6-.2-1.3-.5-1.9-.8-.6-.3-1.2-.6-1.8-.8-.8-.4-1.6-.6-2.3-.8-.7-.1-1.4-.2-2.1-.2-1.5,0-2.7,.3-3.6,1-.9,.7-1.4,1.7-1.4,3s.9,3.1,2.6,4.6,3.9,2.7,6.4,3.8c2.5,1.1,5.1,1.9,7.9,2.5,2.8,.6,5.2,.9,7.4,.9Zm-20.6-44.2c.8,2.1,1.7,4.1,2.8,5.9s2.2,3.4,3.4,4.7c1.2,1.3,2.5,2.3,3.8,3.1s2.7,1.1,4,1.1,1.5-.1,2.3-.4c1.5-.5,2.6-1.4,3.5-2.7,.8-1.3,1.4-2.9,1.6-4.8,.2-1.9,.1-4-.2-6.3-.4-2.3-1-4.7-1.9-7.1-.8-2.1-1.7-4.1-2.7-5.9-1-1.8-2.2-3.3-3.4-4.6-1.2-1.3-2.5-2.3-3.8-3.1s-2.7-1.1-4-1.1-1.5,.1-2.3,.4c-1.5,.5-2.7,1.4-3.5,2.8-.8,1.3-1.4,3-1.6,4.8-.2,1.9-.1,3.9,.2,6.2,.4,2.3,1,4.6,1.9,7Z" fill="#221f20"/><path d="M263.4,27.6v-.3c1.3-.1,2.6-.4,4-.7,1.4-.3,2.7-.8,4.1-1.2s2.6-1,3.8-1.5c1.2-.5,2.2-1.1,3.1-1.6v14.9c.4-1.6,.9-3.3,1.7-5.1,.8-1.8,1.8-3.4,3-4.8s2.7-2.7,4.4-3.6c1.7-.9,3.7-1.4,6-1.4s5.2,.6,7.1,1.7l-3.7,9.1c-1.2-.6-2.5-1.1-3.8-1.6-1.3-.4-2.7-.7-4.3-.7s-2.6,.3-3.9,.8c-1.3,.5-2.4,1.3-3.3,2.4-1,1-1.7,2.3-2.3,3.8-.6,1.5-.9,3.1-.9,5v27.4h-10.1V32.1c0-1.9-.4-3.1-1.2-3.7-.8-.6-2-.8-3.8-.8Z" fill="#221f20"/><path d="M301.2,60.8c0-2.2,.5-4.2,1.6-6.2,1-2,2.4-3.8,4.1-5.6,1.7-1.8,3.7-3.4,5.8-4.9,2.2-1.5,4.4-2.9,6.7-4.1-1.7-.7-3.4-1.3-5.2-1.8-1.7-.5-3.4-1-5-1.3s-3-.6-4.4-.8c-1.3-.2-2.5-.3-3.3-.3,.5-2.2,1.4-4.1,2.7-5.8,1.3-1.7,2.8-3.1,4.5-4.2,1.7-1.2,3.6-2,5.7-2.6s4-.9,6-.9c3.5,0,6.2,.5,8.2,1.6,2,1,3.6,2.4,4.7,4.2,1.2,1.7,2,3.7,2.6,6,.6,2.3,1.2,4.7,1.8,7.2,.6,2.5,1.2,4.8,1.7,7.1,.5,2.2,1.1,4.5,1.6,6.8,.5,2.3,1.1,4.7,1.7,7.1,.6,2.5,1.2,5.1,1.9,8.1h-10.2v-14.7c0,1.6-.4,3.3-1.3,5.1-.9,1.8-2.1,3.5-3.8,5-1.7,1.5-3.7,2.8-6.2,3.8-2.5,1-5.3,1.5-8.5,1.5s-3.2-.2-4.9-.7c-1.6-.4-3.1-1.1-4.3-1.9-1.3-.8-2.3-1.9-3.1-3.1-.8-1.3-1.2-2.7-1.2-4.3Zm21-19.6c-1.5,1.2-3,2.4-4.3,3.8-1.4,1.3-2.6,2.8-3.6,4.3-1,1.5-1.8,3.1-2.4,4.8s-.9,3.4-.9,5.2,.3,2.4,.8,3.5c.5,1.1,1.3,2,2.2,2.8,.9,.8,2,1.4,3.2,1.8,1.2,.4,2.6,.7,4,.7s3.2-.5,4.7-1.4c1.5-.9,2.8-2,3.9-3.3,1.1-1.3,2-2.7,2.6-4.1,.6-1.5,1-2.7,1-3.9,0-1.6-.3-3.1-.9-4.5-.6-1.4-1.4-2.7-2.4-3.9-1-1.2-2.2-2.2-3.6-3.2-1.4-.9-2.8-1.8-4.3-2.6Zm12.2-7.6c-.2-2.9-1.2-5-2.9-6.4s-3.8-2-6.1-2-4.1,.3-5.8,1c-1.7,.7-3.1,1.5-4.2,2.5-1.1,1-2,2-2.6,3-.6,1-.9,1.9-.9,2.6s0,.7,.2,1.2c.2,.5,.5,.8,1.1,1,2.7,.8,5.2,1.7,7.5,2.6,2.6-1.3,5.2-2.5,7.5-3.4,2.4-.9,4.4-1.6,6-2.1Zm-11,6.7c3.3,1.8,6,3.8,8,6.3,2,2.4,3,5.3,3,8.8v-20.6c-1.7,.5-3.5,1.2-5.4,2.2-1.9,.9-3.8,2.1-5.7,3.4Z" fill="#221f20"/><path d="M366.8,22.9c4.7,0,8.7,1,12,3,3.3,2,6,5.3,8.1,9.9l-8.5,4.5c-.7-1.9-1.6-3.8-2.6-5.7s-2.1-3.5-3.4-4.9c-1.3-1.4-2.8-2.6-4.4-3.5-1.6-.9-3.5-1.3-5.6-1.3s-3.3,.4-4.6,1.2-2.4,1.8-3.3,3.1c-.9,1.3-1.5,2.7-2,4.3-.4,1.6-.7,3.3-.7,4.9,0,3.2,.5,6.2,1.4,9.1,.9,2.8,2.3,5.3,4,7.4,1.8,2.1,3.9,3.8,6.4,5,2.5,1.2,5.4,1.8,8.5,1.8s5.1-.5,7.5-1.6c2.4-1,4.2-2.4,5.6-4.1h.3l-4,12.3c-1.9,.9-3.9,1.6-6.1,1.9s-4.4,.6-6.6,.6c-3.2,0-6.3-.6-9.1-1.8-2.8-1.2-5.3-2.8-7.5-4.9-2.1-2.1-3.8-4.5-5.1-7.4-1.2-2.8-1.9-5.9-1.9-9.2s.5-6.3,1.5-9.2c1-3,2.4-5.6,4.2-7.9,1.8-2.3,4.1-4.1,6.7-5.5,2.6-1.4,5.6-2,9-2Z" fill="#221f20"/><path d="M391.8,47.2c0-3.2,.4-6.4,1.3-9.4s2.2-5.7,4-8,4.1-4.2,7-5.6c2.9-1.4,6.3-2.1,10.3-2.1s4.9,.3,7,1c2.1,.7,3.9,1.6,5.3,2.7,1.5,1.1,2.6,2.4,3.4,3.9,.8,1.5,1.2,3,1.2,4.7s-.3,2.9-1,4c-.6,1.1-1.5,2-2.6,2.8s-2.3,1.5-3.6,2.2c-1.4,.6-2.8,1.3-4.3,2-1.7,.8-3.3,1.6-5,2.4s-3.2,1.6-4.7,2.4c-1.5,.8-2.8,1.5-4,2.1-1.2,.6-2.2,1.2-2.9,1.6,1.8,2.3,3.9,4.1,6.5,5.5,2.6,1.3,5.5,2,8.8,2s5.1-.5,7.5-1.6c2.4-1,4.2-2.4,5.6-4.2h.3l-4,12.4c-1.9,.9-3.9,1.6-6.1,2s-4.4,.6-6.6,.6c-3.2,0-6.3-.6-9.1-1.8-2.8-1.2-5.3-2.9-7.5-5-2.1-2.1-3.8-4.6-5.1-7.5-1.2-2.9-1.9-6-1.9-9.3Zm11,6.2c1.1-.6,2.6-1.6,4.7-2.9,2.1-1.3,4.1-2.8,6.2-4.6,2.1-1.7,3.9-3.6,5.4-5.6,1.6-2,2.3-3.9,2.3-5.8s-.2-2-.5-3.2-.9-2.3-1.8-3.4c-.9-1.1-2.1-2-3.7-2.7-1.6-.7-3.6-1.1-6-1.1s-3.6,.4-5,1.2c-1.4,.8-2.5,1.8-3.4,3.1-.9,1.3-1.6,2.8-2,4.4-.4,1.6-.6,3.3-.6,5,0,3,.4,5.8,1.1,8.4,.8,2.6,1.9,5,3.4,7.1Z" fill="#221f20"/><path d="M127,11c1.9,11.1-4.5,10.2-.2,0-4.3,10.3-9.3,6-.2-.1-9.2,6.2-11.1,0,0-.2-11,.1-9.2-6.2,0-.2-9.3-6-4.4-10.3,.2-.1-4.5-10.1,1.9-11.1,.2,0,1.7-11.1,7.7-8.4,.2,0,7.5-8.5,11.1-3.1,.1,.2,10.9-3.2,11,3.3,0,.2,11,3.1,7.5,8.6-.1,.2,7.6,8.4,1.7,11.2-.2,0Z" fill="#221f20"/></svg>